<svg version="1.2" baseProfile="tiny" viewBox="0 0 104.421 83.188" xmlns:xlink="http://www.w3.org/1999/xlink" xmlns="http://www.w3.org/2000/svg">
<path style="fill:#ffffff;" d="M103.6974,80.318L103.4509,82.2538C103.4363,82.3719,103.3267,82.4676,103.2076,82.4676L98.9149,82.4676C98.7969,82.4676,98.6016,82.4676,98.4826,82.4676L94.1898,82.4676L94.1898,82.4676C94.0708,82.4676,93.9611,82.3711,93.9465,82.2538L93.7011,80.318C93.6865,80.1999,93.7084,80.0127,93.7502,79.9012C93.7502,79.9012,94.5522,77.7392,98.6987,77.7392C102.8463,77.7392,103.6483,79.9012,103.6483,79.9012C103.69,80.0127,103.7109,80.2007,103.6974,80.318M89.1734,77.7941C89.1734,77.7716,89.0095,77.7533,88.808,77.7533L85.5396,77.7533C85.3381,77.7533,85.1752,77.7708,85.1752,77.7941L85.1752,77.8656L84.298,77.8656L84.298,77.7941C84.298,77.7716,84.1341,77.7533,83.9315,77.7533L80.6464,77.7533C80.4428,77.7533,80.2789,77.7708,80.2789,77.7941L80.2789,77.8656L79.3453,77.8656L79.3453,77.7941C79.3453,77.7716,79.1835,77.7533,78.9861,77.7533L75.7825,77.7533C75.5851,77.7533,75.4243,77.7708,75.4243,77.7941L75.4243,77.8656L74.5138,77.8656L74.5138,77.7941C74.5138,77.7716,74.3498,77.7533,74.1473,77.7533L70.8622,77.7533C70.6586,77.7533,70.4936,77.7708,70.4936,77.7941L70.4936,77.8656L69.4807,77.8656L69.4807,77.7941C69.4807,77.7716,69.3157,77.7533,69.1142,77.7533L65.828,77.7533C65.6265,77.7533,65.4605,77.7708,65.4605,77.7941L65.4605,77.8656L64.4476,77.8656L64.4476,77.7941C64.4476,77.7716,64.2837,77.7533,64.0811,77.7533L60.796,77.7533C60.5934,77.7533,60.4295,77.7708,60.4295,77.7941L60.4295,77.8656L59.4155,77.8656L59.4155,77.7941C59.4155,77.7716,59.2516,77.7533,59.049,77.7533L55.7629,77.7533C55.5614,77.7533,55.3964,77.7708,55.3964,77.7941L55.3964,77.8656L54.3751,77.8656L54.3751,77.7941C54.3751,77.7716,54.2112,77.7533,54.0076,77.7533L50.7225,77.7533C50.5199,77.7533,50.356,77.7708,50.356,77.7941L50.356,77.8656L49.3525,77.8656L49.3525,77.7941C49.3525,77.7716,49.1875,77.7533,48.9849,77.7533L45.6988,77.7533C45.4962,77.7533,45.3323,77.7708,45.3323,77.7941L45.3323,77.8656L44.3194,77.8656L44.3194,77.7941C44.3194,77.7716,44.1544,77.7533,43.9518,77.7533L40.6668,77.7533C40.4642,77.7533,40.3002,77.7708,40.3002,77.7941L40.3002,77.8656L39.2874,77.8656L39.2874,77.7941C39.2874,77.7716,39.1224,77.7533,38.9198,77.7533L35.6337,77.7533C35.4311,77.7533,35.2671,77.7708,35.2671,77.7941L35.2671,77.8656L34.2438,77.8656L34.2438,77.7941C34.2438,77.7716,34.0799,77.7533,33.8773,77.7533L30.5922,77.7533C30.3886,77.7533,30.2247,77.7708,30.2247,77.7941L30.2247,77.8656L29.2222,77.8656L29.2222,77.7941C29.2222,77.7716,29.0583,77.7533,28.8547,77.7533L25.5685,77.7533C25.367,77.7533,25.202,77.7708,25.202,77.7941L25.202,77.8656L24.3886,77.8656L24.3886,77.7941C24.3886,77.7716,24.2246,77.7533,24.0221,77.7533L20.7359,77.7533C20.5333,77.7533,20.3694,77.7708,20.3694,77.7941L20.3694,77.8656L19.155,77.8656L19.155,77.7941C19.155,77.7716,18.991,77.7533,18.7885,77.7533L15.5023,77.7533C15.2998,77.7533,15.1348,77.7708,15.1348,77.7941L15.1348,77.8656L14.1219,77.8656L14.1219,77.7941C14.1219,77.7716,13.958,77.7533,13.7554,77.7533L10.4703,77.7533C10.2667,77.7533,10.1027,77.7708,10.1027,77.7941L10.1027,77.8656L9.0867,77.8656L9.0867,77.8656L9.0867,77.7941C9.0867,77.7716,8.9186,77.7533,8.7098,77.7533L5.3359,77.7533L5.3359,77.7533C5.1281,77.7533,4.959,77.7708,4.959,77.7941L4.959,77.8656L3.7654,77.8656L3.7654,77.8656L3.7654,82.3852L89.7624,82.3852L89.7624,77.8656L89.1734,77.8656L89.1734,77.7941M92.7593,1.1522L92.7593,67.4879C92.7593,67.725,92.565,67.9197,92.327,67.9197L55.86,67.9197L55.86,67.9197L55.86,74.7078C55.86,74.7078,58.1145,74.8409,60.7605,75.0056C63.4848,75.1213,66.6237,75.2727,68.1431,75.4199C70.9447,75.6919,71.1295,76.5346,71.142,76.6419C71.1431,76.6486,71.1431,76.6528,71.1431,76.6528L22.3033,76.6528L22.3033,76.6528L22.3033,76.6528L22.3033,76.6511C22.3033,76.6336,22.3137,76.5122,22.4672,76.3508C22.7345,76.0422,23.4394,75.5838,25.3023,75.4199C26.7182,75.296,29.6629,75.1512,32.3204,75.0347C35.1345,74.8559,37.6177,74.7078,37.6198,74.7078L37.6198,74.7078L37.4851,74.7078L37.4851,67.9197L1.1518,67.9197L1.1518,67.9197C0.9147,67.9197,0.7205,67.7259,0.7205,67.4879L0.7205,1.1522C0.7205,0.9151,0.9137,0.7204,1.1518,0.7204L92.328,0.7204C92.565,0.7204,92.7593,0.9151,92.7593,1.1522M88.8602,3.8741C88.8602,3.6569,88.6806,3.4781,88.4644,3.4781L5.0164,3.4781L5.0164,3.4781C4.7981,3.4781,4.6196,3.6561,4.6196,3.8741L4.6196,62.6664C4.6196,62.8843,4.7981,63.0623,5.0164,63.0623L88.4655,63.0623C88.6816,63.0623,88.8612,62.8843,88.8612,62.6664L88.8612,3.8741Z"/>
</svg>