<svg version="1.2" baseProfile="tiny" id="EdgeSVG_ANESG" x="0px" y="0px" width="104.421px" height="83.188px" viewBox="0 0 104.421 83.188" xmlns:xlink="http://www.w3.org/1999/xlink" xmlns="http://www.w3.org/2000/svg">
  <linearGradient id="SVGID_1_" gradientUnits="userSpaceOnUse" x1="0" y1="41.5942" x2="104.4214" y2="41.5942">
    <stop offset="0" style="stop-color:#000000;stop-opacity:0.5"/>
    <stop offset="1" style="stop-color:#000000;stop-opacity:0.5"/>
  </linearGradient>
  <path fill-rule="evenodd" fill="url(#SVGID_1_)" d="M104.411,80.41l-0.245,1.936c-0.061,0.48-0.473,0.843-0.958,0.843H94.19&#xD;&#xA;&#x9;&#x9;c-0.484,0-0.896-0.362-0.958-0.843l-0.245-1.937c-0.029-0.235,0.006-0.54,0.088-0.759c0.039-0.106,1.029-2.629,5.624-2.629&#xD;&#xA;&#x9;&#x9;c4.596,0,5.585,2.523,5.625,2.631C104.406,79.87,104.441,80.176,104.411,80.41z M56.58,68.64v5.389&#xD;&#xA;&#x9;&#x9;c0.865,0.052,2.461,0.148,4.218,0.258c3.657,0.154,6.152,0.294,7.415,0.417c3.008,0.292,3.575,1.281,3.644,1.85&#xD;&#xA;&#x9;&#x9;c0.004,0.034,0.006,0.067,0.006,0.1v0.381h2.283c0.126,0,0.242,0.005,0.338,0.016c0.142,0.015,0.256,0.05,0.349,0.097h0.271&#xD;&#xA;&#x9;&#x9;c0.092-0.046,0.205-0.081,0.345-0.097c0.095-0.011,0.21-0.016,0.334-0.016h3.203c0.124,0,0.239,0.005,0.334,0.016&#xD;&#xA;&#x9;&#x9;c0.14,0.016,0.253,0.05,0.345,0.097h0.295c0.093-0.047,0.208-0.082,0.349-0.097c0.096-0.011,0.213-0.016,0.338-0.016h3.285&#xD;&#xA;&#x9;&#x9;c0.125,0,0.242,0.005,0.338,0.016c0.141,0.015,0.256,0.05,0.349,0.097h0.237c0.094-0.047,0.208-0.082,0.349-0.097&#xD;&#xA;&#x9;&#x9;c0.096-0.011,0.212-0.016,0.337-0.016h3.268c0.125,0,0.242,0.005,0.337,0.016c0.142,0.015,0.255,0.05,0.349,0.097h0.988v5.958&#xD;&#xA;&#x9;&#x9;H3.045v-5.958h1.596c0.094-0.047,0.209-0.082,0.353-0.097c0.097-0.01,0.215-0.016,0.342-0.016H8.71&#xD;&#xA;&#x9;&#x9;c0.127,0,0.246,0.005,0.343,0.016c0.143,0.015,0.259,0.05,0.353,0.097h0.379c0.093-0.047,0.208-0.082,0.349-0.097&#xD;&#xA;&#x9;&#x9;c0.096-0.011,0.212-0.016,0.337-0.016h3.285c0.125,0,0.242,0.005,0.338,0.016c0.141,0.015,0.255,0.05,0.349,0.097h0.375&#xD;&#xA;&#x9;&#x9;c0.093-0.047,0.208-0.082,0.349-0.097c0.096-0.011,0.212-0.016,0.337-0.016h3.286c0.125,0,0.242,0.005,0.338,0.016&#xD;&#xA;&#x9;&#x9;c0.141,0.015,0.256,0.05,0.349,0.097h0.575c0.093-0.047,0.208-0.082,0.349-0.097c0.096-0.011,0.212-0.016,0.337-0.016h0.783&#xD;&#xA;&#x9;&#x9;l0.068-0.466c0.017-0.16,0.087-0.424,0.346-0.701c0.554-0.628,1.666-1.02,3.306-1.164c1.191-0.104,3.56-0.235,7.042-0.387&#xD;&#xA;&#x9;&#x9;c1.458-0.092,3.389-0.211,4.484-0.278V68.64H1.152C0.517,68.64,0,68.124,0,67.488V1.152C0,0.517,0.517,0,1.152,0h91.176&#xD;&#xA;&#x9;&#x9;c0.635,0,1.152,0.517,1.152,1.152v66.336c0,0.635-0.518,1.152-1.152,1.152H56.58z M88.866,63.124V3.5L4.59,3.464v59.624&#xD;&#xA;&#x9;&#x9;L88.866,63.124z"/>
</svg>