<svg version="1.2" baseProfile="tiny" viewBox="0 0 151.041 151.034" xmlns:xlink="http://www.w3.org/1999/xlink" xmlns="http://www.w3.org/2000/svg">
<path style="fill:#ffffff;" d="M107.4883,3.5025C106.6652,2.6793,105.0384,2.0057,103.8739,2.0057L47.1973,1.9906C46.0313,1.9906,44.4045,2.6658,43.5814,3.4874L3.4996,43.5552C2.6749,44.3783,1.9998,46.005,1.9998,47.1694L1.9907,103.8404C1.9907,105.0049,2.6644,106.6315,3.4875,107.4546L43.5496,147.5406C44.3713,148.3637,45.998,149.0373,47.1626,149.0373L103.8392,149.0494C105.0037,149.0494,106.6304,148.3758,107.4536,147.5527L147.5399,107.4894C148.363,106.6663,149.0367,105.0396,149.0367,103.8751L149.0488,47.1996C149.0488,46.0336,148.3766,44.4085,147.5535,43.5839L107.4883,3.5025Z"/>
</svg>