<svg version="1.2" baseProfile="tiny" viewBox="0 0 151.041 151.034" xmlns:xlink="http://www.w3.org/1999/xlink" xmlns="http://www.w3.org/2000/svg">
<path style="fill:#ffffff;stroke:#231F20;stroke-width:4;" d="M47.5477,150.0236C45.8606,150.0236,43.7747,149.1597,42.5815,147.9665L3.0586,108.4243C1.8654,107.2311,0.9999,105.1453,0.9999,103.4613L1.0105,47.5546C1.0105,45.8675,1.8774,43.7817,3.0707,42.5886L42.6117,3.0584C43.8049,1.8638,45.8923,0.9998,47.5734,0.9998L103.4948,1.0195C105.185,1.0195,107.2723,1.8804,108.4595,3.0705L147.9824,42.6203C149.1545,43.7923,150.0411,45.9219,150.0411,47.5742L150.0305,103.4915C150.0305,105.1755,149.1651,107.2628,147.9718,108.4545L108.4187,147.9876C107.2316,149.1733,105.1457,150.0357,103.4555,150.0357L47.5477,150.0236Z"/>
</svg>