<svg version="1.2" baseProfile="tiny" viewBox="0 0 9.5 36.495" xmlns:xlink="http://www.w3.org/1999/xlink" xmlns="http://www.w3.org/2000/svg">
<path style="fill:#ffffff;" d="M1.352,1.4999L8.167,1.4999L8.167,32.7302L8.164,32.7302L8.164,32.7302C8.164,32.7302,8.185,35.495,4.803,35.495C1.422,35.495,1.351,32.7302,1.351,32.7302L1.351,1.4999M8.25,1.0L1.25,1.0C1.112,1.0,1.0,1.112,1.0,1.25C1.0,1.3879,1.112,1.4999,1.25,1.4999L1.352,1.4999L1.352,1.477L4.76,1.477L4.76,1.477L8.167,1.477L8.167,1.4999L8.25,1.4999L8.25,1.4999C8.388,1.4999,8.5,1.3879,8.5,1.25C8.5,1.112,8.388,1.0,8.25,1.0Z"/>
</svg>