<svg version="1.2" baseProfile="tiny" id="EdgeSVG_6XgDB" x="0px" y="0px" width="48.128px" height="94.254px" viewBox="0 0 48.128 94.254" xmlns:xlink="http://www.w3.org/1999/xlink" xmlns="http://www.w3.org/2000/svg">
  <g>
    <circle fill="#333333" cx="24.065" cy="24.063" r="17.979"/>
    <linearGradient id="SVGID_2_" gradientUnits="userSpaceOnUse" x1="24.0635" y1="1.001" x2="24.0635" y2="47.1279">
      <stop offset="0" style="stop-color:#FFFFFF;stop-opacity:0.1"/>
      <stop offset="1" style="stop-color:#000000;stop-opacity:0.2"/>
    </linearGradient>
    <path fill="url(#SVGID_2_)" d="M46.584,1.001H1.544C1.245,1.001,1,1.245,1,1.544v45.041c0,0.298,0.245,0.543,0.544,0.543h45.04&#xD;&#xA;&#x9;&#x9;&#x9;c0.299,0,0.543-0.245,0.543-0.543V1.544C47.127,1.245,46.883,1.001,46.584,1.001z M24.065,45.106&#xD;&#xA;&#x9;&#x9;&#x9;c-11.623,0-21.044-9.421-21.044-21.043c0-11.622,9.421-21.043,21.044-21.043c11.619,0,21.041,9.421,21.041,21.043&#xD;&#xA;&#x9;&#x9;&#x9;C45.106,35.686,35.685,45.106,24.065,45.106z"/>
    <linearGradient id="SVGID_3_" gradientUnits="userSpaceOnUse" x1="24.0635" y1="3.0195" x2="24.0635" y2="45.1064">
      <stop offset="0" style="stop-color:#FFFFFF;stop-opacity:0.35"/>
      <stop offset="0.2132" style="stop-color:#B6B6B6;stop-opacity:0.3713"/>
      <stop offset="0.425" style="stop-color:#757575;stop-opacity:0.3925"/>
      <stop offset="0.6155" style="stop-color:#434343;stop-opacity:0.4115"/>
      <stop offset="0.7808" style="stop-color:#1E1E1E;stop-opacity:0.4281"/>
      <stop offset="0.9145" style="stop-color:#080808;stop-opacity:0.4415"/>
      <stop offset="1" style="stop-color:#000000;stop-opacity:0.45"/>
    </linearGradient>
    <path fill="url(#SVGID_3_)" d="M24.065,3.02c-11.623,0-21.044,9.421-21.044,21.043c0,11.623,9.421,21.043,21.044,21.043&#xD;&#xA;&#x9;&#x9;&#x9;c11.619,0,21.041-9.421,21.041-21.043C45.106,12.441,35.685,3.02,24.065,3.02z M24.065,44.436&#xD;&#xA;&#x9;&#x9;&#x9;c-11.253,0-20.373-9.12-20.373-20.373c0-11.25,9.12-20.373,20.373-20.373c11.25,0,20.369,9.123,20.369,20.373&#xD;&#xA;&#x9;&#x9;&#x9;C44.435,35.315,35.315,44.436,24.065,44.436z"/>
    <linearGradient id="SVGID_4_" gradientUnits="userSpaceOnUse" x1="24.0635" y1="3.6904" x2="24.0635" y2="44.4355">
      <stop offset="0" style="stop-color:#FFFFFF;stop-opacity:0.45"/>
      <stop offset="0.09" style="stop-color:#F8F8F8;stop-opacity:0.4275"/>
      <stop offset="0.2167" style="stop-color:#E6E6E6;stop-opacity:0.3958"/>
      <stop offset="0.3649" style="stop-color:#C8C8C8;stop-opacity:0.3588"/>
      <stop offset="0.5298" style="stop-color:#9E9E9E;stop-opacity:0.3176"/>
      <stop offset="0.7082" style="stop-color:#686868;stop-opacity:0.273"/>
      <stop offset="0.895" style="stop-color:#282828;stop-opacity:0.2263"/>
      <stop offset="1" style="stop-color:#000000;stop-opacity:0.2"/>
    </linearGradient>
    <path fill="url(#SVGID_4_)" d="M24.065,3.69c-11.253,0-20.373,9.123-20.373,20.373c0,11.252,9.12,20.373,20.373,20.373&#xD;&#xA;&#x9;&#x9;&#x9;c11.25,0,20.369-9.12,20.369-20.373C44.435,12.813,35.315,3.69,24.065,3.69z M24.065,43.743c-10.87,0-19.681-8.811-19.681-19.68&#xD;&#xA;&#x9;&#x9;&#x9;c0-10.867,8.811-19.677,19.681-19.677c10.866,0,19.677,8.81,19.677,19.677C43.742,34.933,34.932,43.743,24.065,43.743z"/>
    <linearGradient id="SVGID_5_" gradientUnits="userSpaceOnUse" x1="24.0635" y1="43.7432" x2="24.0635" y2="4.3862">
      <stop offset="0" style="stop-color:#FFFFFF;stop-opacity:0.35"/>
      <stop offset="0.2132" style="stop-color:#B6B6B6;stop-opacity:0.3713"/>
      <stop offset="0.425" style="stop-color:#757575;stop-opacity:0.3925"/>
      <stop offset="0.6155" style="stop-color:#434343;stop-opacity:0.4115"/>
      <stop offset="0.7808" style="stop-color:#1E1E1E;stop-opacity:0.4281"/>
      <stop offset="0.9145" style="stop-color:#080808;stop-opacity:0.4415"/>
      <stop offset="1" style="stop-color:#000000;stop-opacity:0.45"/>
    </linearGradient>
    <path fill="url(#SVGID_5_)" d="M24.065,4.386c-10.87,0-19.681,8.81-19.681,19.677c0,10.87,8.811,19.68,19.681,19.68&#xD;&#xA;&#x9;&#x9;&#x9;c10.866,0,19.677-8.811,19.677-19.68C43.742,13.196,34.932,4.386,24.065,4.386z M24.065,42.382&#xD;&#xA;&#x9;&#x9;&#x9;c-10.117,0-18.319-8.202-18.319-18.319c0-10.117,8.202-18.319,18.319-18.319s18.318,8.202,18.318,18.319&#xD;&#xA;&#x9;&#x9;&#x9;C42.384,34.18,34.183,42.382,24.065,42.382z"/>
    <path fill="#333333" d="M24.065,5.744c-10.117,0-18.319,8.202-18.319,18.319c0,10.117,8.202,18.319,18.319,18.319&#xD;&#xA;&#x9;&#x9;&#x9;s18.318-8.202,18.318-18.319C42.384,13.946,34.183,5.744,24.065,5.744z M24.065,42.042c-9.93,0-17.979-8.049-17.979-17.979&#xD;&#xA;&#x9;&#x9;&#x9;c0-9.929,8.05-17.979,17.979-17.979c9.929,0,17.979,8.05,17.979,17.979C42.044,33.993,33.994,42.042,24.065,42.042z"/>
    <linearGradient id="SVGID_6_" gradientUnits="userSpaceOnUse" x1="24.0654" y1="6.084" x2="24.0654" y2="42.042">
      <stop offset="0.4451" style="stop-color:#FFFFFF;stop-opacity:0"/>
      <stop offset="1" style="stop-color:#FFFFFF;stop-opacity:0.15"/>
    </linearGradient>
    <circle fill="url(#SVGID_6_)" cx="24.065" cy="24.063" r="17.979"/>
    <radialGradient id="SVGID_7_" cx="24.0654" cy="24.063" r="17.9788" gradientUnits="userSpaceOnUse">
      <stop offset="0" style="stop-color:#FFFFFF;stop-opacity:0"/>
      <stop offset="0.7911" style="stop-color:#FFFFFF;stop-opacity:0.0865"/>
      <stop offset="0.9146" style="stop-color:#FFFFFF;stop-opacity:0.1"/>
      <stop offset="0.9817" style="stop-color:#FFFFFF;stop-opacity:0.05"/>
    </radialGradient>
    <circle fill="url(#SVGID_7_)" cx="24.065" cy="24.063" r="17.979"/>
    <path fill="#333333" d="M1.544,46.541v0.044h44.972L1.544,46.541z M1.544,46.541v0.044h44.972L1.544,46.541z"/>
    <linearGradient id="SVGID_8_" gradientUnits="userSpaceOnUse" x1="1.0928" y1="1.3213" x2="47.0078" y2="1.3213">
      <stop offset="0" style="stop-color:#FFFFFF;stop-opacity:0.15"/>
      <stop offset="0.5244" style="stop-color:#FFFFFF;stop-opacity:0.3"/>
      <stop offset="1" style="stop-color:#FFFFFF;stop-opacity:0.15"/>
    </linearGradient>
    <path fill="url(#SVGID_8_)" d="M46.584,1.642V1.544H1.663l-0.57-0.301C1.19,1.099,1.356,1.001,1.544,1.001h45.04&#xD;&#xA;&#x9;&#x9;&#x9;c0.171,0,0.323,0.079,0.424,0.204L46.584,1.642z"/>
    <linearGradient id="SVGID_9_" gradientUnits="userSpaceOnUse" x1="1.1221" y1="46.8345" x2="46.877" y2="46.8345">
      <stop offset="0" style="stop-color:#000000;stop-opacity:0.35"/>
      <stop offset="1" style="stop-color:#000000;stop-opacity:0.35"/>
    </linearGradient>
    <path fill="url(#SVGID_9_)" d="M46.877,47.044c-0.084,0.054-0.185,0.084-0.293,0.084H1.544c-0.169,0-0.321-0.079-0.422-0.201&#xD;&#xA;&#x9;&#x9;&#x9;l0.422-0.386v0.044h44.972L46.877,47.044z"/>
    <polygon fill="#333333" points="46.516,46.585 1.544,46.585 1.544,46.541 &#x9;&#x9;"/>
    <linearGradient id="SVGID_10_" gradientUnits="userSpaceOnUse" x1="1.3311" y1="1.2432" x2="1.3311" y2="46.9268">
      <stop offset="0" style="stop-color:#000000;stop-opacity:0.25"/>
      <stop offset="1" style="stop-color:#000000;stop-opacity:0.15"/>
    </linearGradient>
    <path fill="url(#SVGID_10_)" d="M1.663,1.544H1.544v44.997l-0.422,0.386C1.046,46.834,1,46.715,1,46.585V1.544&#xD;&#xA;&#x9;&#x9;&#x9;C1,1.433,1.032,1.33,1.093,1.243L1.663,1.544z"/>
    <linearGradient id="SVGID_11_" gradientUnits="userSpaceOnUse" x1="46.8213" y1="1.2051" x2="46.8213" y2="47.0439">
      <stop offset="0" style="stop-color:#000000;stop-opacity:0.25"/>
      <stop offset="1" style="stop-color:#000000;stop-opacity:0.15"/>
    </linearGradient>
    <path fill="url(#SVGID_11_)" d="M47.127,1.544v45.041c0,0.189-0.101,0.361-0.25,0.459l-0.361-0.459h0.068V1.642l0.424-0.437&#xD;&#xA;&#x9;&#x9;&#x9;C47.081,1.297,47.127,1.417,47.127,1.544z"/>
    <linearGradient id="SVGID_12_" gradientUnits="userSpaceOnUse" x1="24.0654" y1="6.084" x2="24.0654" y2="42.042">
      <stop offset="0" style="stop-color:#000000;stop-opacity:0.2"/>
      <stop offset="0.0862" style="stop-color:#080808;stop-opacity:0.1871"/>
      <stop offset="0.2177" style="stop-color:#1D1D1D;stop-opacity:0.1673"/>
      <stop offset="0.3779" style="stop-color:#3F3F3F;stop-opacity:0.1433"/>
      <stop offset="0.5608" style="stop-color:#707070;stop-opacity:0.1159"/>
      <stop offset="0.7629" style="stop-color:#ADADAD;stop-opacity:0.0856"/>
      <stop offset="0.9781" style="stop-color:#F7F7F7;stop-opacity:0.0533"/>
      <stop offset="1" style="stop-color:#FFFFFF;stop-opacity:0.05"/>
    </linearGradient>
    <path fill="url(#SVGID_12_)" d="M24.065,6.084c-9.93,0-17.979,8.05-17.979,17.979c0,9.93,8.05,17.979,17.979,17.979&#xD;&#xA;&#x9;&#x9;&#x9;c9.929,0,17.979-8.049,17.979-17.979C42.044,14.134,33.994,6.084,24.065,6.084z M24.065,39.603c-8.582,0-15.54-6.958-15.54-15.54&#xD;&#xA;&#x9;&#x9;&#x9;s6.958-15.54,15.54-15.54s15.539,6.958,15.539,15.54S32.647,39.603,24.065,39.603z"/>
    <linearGradient id="SVGID_13_" gradientUnits="userSpaceOnUse" x1="24.0635" y1="5.125" x2="24.0635" y2="43.0039">
      <stop offset="0" style="stop-color:#FFFFFF;stop-opacity:0.05"/>
      <stop offset="0.8649" style="stop-color:#FFFFFF;stop-opacity:0.0327"/>
      <stop offset="1" style="stop-color:#FFFFFF;stop-opacity:0.03"/>
    </linearGradient>
    <path fill="url(#SVGID_13_)" d="M24.065,5.125c-10.463,0-18.941,8.479-18.941,18.938s8.479,18.941,18.941,18.941&#xD;&#xA;&#x9;&#x9;&#x9;c10.459,0,18.938-8.481,18.938-18.941S34.524,5.125,24.065,5.125z M24.065,42.382c-10.117,0-18.319-8.202-18.319-18.319&#xD;&#xA;&#x9;&#x9;&#x9;c0-10.117,8.202-18.319,18.319-18.319s18.318,8.202,18.318,18.319C42.384,34.18,34.183,42.382,24.065,42.382z"/>
    <linearGradient id="SVGID_14_" gradientUnits="userSpaceOnUse" x1="23.9453" y1="25.5596" x2="23.9453" y2="6.5596">
      <stop offset="0" style="stop-color:#FFFFFF;stop-opacity:0.1"/>
      <stop offset="0.8649" style="stop-color:#FFFFFF;stop-opacity:0.1432"/>
      <stop offset="1" style="stop-color:#FFFFFF;stop-opacity:0.15"/>
    </linearGradient>
    <path fill="url(#SVGID_14_)" d="M6.562,24.063c0-9.666,7.838-17.503,17.504-17.503c8.68,0,15.885,6.319,17.264,14.61&#xD;&#xA;&#x9;&#x9;&#x9;c-13.322,0.166-23.714,0.913-34.702,4.39C6.583,25.065,6.562,24.568,6.562,24.063z"/>
    <g>
      <linearGradient id="SVGID_15_" gradientUnits="userSpaceOnUse" x1="4.5537" y1="6.084" x2="4.5537" y2="3.0195">
        <stop offset="0" style="stop-color:#FFFFFF;stop-opacity:0.35"/>
        <stop offset="0.2132" style="stop-color:#B6B6B6;stop-opacity:0.3713"/>
        <stop offset="0.425" style="stop-color:#757575;stop-opacity:0.3925"/>
        <stop offset="0.6155" style="stop-color:#434343;stop-opacity:0.4115"/>
        <stop offset="0.7808" style="stop-color:#1E1E1E;stop-opacity:0.4281"/>
        <stop offset="0.9145" style="stop-color:#080808;stop-opacity:0.4415"/>
        <stop offset="1" style="stop-color:#000000;stop-opacity:0.45"/>
      </linearGradient>
      <path fill="url(#SVGID_15_)" d="M4.554,3.02c-0.846,0-1.532,0.688-1.532,1.532s0.687,1.532,1.532,1.532&#xD;&#xA;&#x9;&#x9;&#x9;&#x9;c0.845,0,1.532-0.688,1.532-1.532S5.398,3.02,4.554,3.02z M4.554,5.875c-0.73,0-1.323-0.593-1.323-1.323s0.593-1.323,1.323-1.323&#xD;&#xA;&#x9;&#x9;&#x9;&#x9;s1.323,0.593,1.323,1.323S5.284,5.875,4.554,5.875z"/>
      <linearGradient id="SVGID_16_" gradientUnits="userSpaceOnUse" x1="43.5059" y1="6.084" x2="43.5059" y2="3.0195">
        <stop offset="0" style="stop-color:#FFFFFF;stop-opacity:0.35"/>
        <stop offset="0.2132" style="stop-color:#B6B6B6;stop-opacity:0.3713"/>
        <stop offset="0.425" style="stop-color:#757575;stop-opacity:0.3925"/>
        <stop offset="0.6155" style="stop-color:#434343;stop-opacity:0.4115"/>
        <stop offset="0.7808" style="stop-color:#1E1E1E;stop-opacity:0.4281"/>
        <stop offset="0.9145" style="stop-color:#080808;stop-opacity:0.4415"/>
        <stop offset="1" style="stop-color:#000000;stop-opacity:0.45"/>
      </linearGradient>
      <path fill="url(#SVGID_16_)" d="M43.506,3.02c-0.845,0-1.532,0.688-1.532,1.532s0.688,1.532,1.532,1.532s1.532-0.688,1.532-1.532&#xD;&#xA;&#x9;&#x9;&#x9;&#x9;S44.351,3.02,43.506,3.02z M43.506,5.875c-0.731,0-1.323-0.593-1.323-1.323s0.592-1.323,1.323-1.323&#xD;&#xA;&#x9;&#x9;&#x9;&#x9;c0.73,0,1.323,0.593,1.323,1.323S44.236,5.875,43.506,5.875z"/>
      <linearGradient id="SVGID_17_" gradientUnits="userSpaceOnUse" x1="4.5537" y1="45.2754" x2="4.5537" y2="42.2109">
        <stop offset="0" style="stop-color:#FFFFFF;stop-opacity:0.35"/>
        <stop offset="0.2132" style="stop-color:#B6B6B6;stop-opacity:0.3713"/>
        <stop offset="0.425" style="stop-color:#757575;stop-opacity:0.3925"/>
        <stop offset="0.6155" style="stop-color:#434343;stop-opacity:0.4115"/>
        <stop offset="0.7808" style="stop-color:#1E1E1E;stop-opacity:0.4281"/>
        <stop offset="0.9145" style="stop-color:#080808;stop-opacity:0.4415"/>
        <stop offset="1" style="stop-color:#000000;stop-opacity:0.45"/>
      </linearGradient>
      <path fill="url(#SVGID_17_)" d="M4.554,42.211c-0.846,0-1.532,0.687-1.532,1.532c0,0.845,0.687,1.533,1.532,1.533&#xD;&#xA;&#x9;&#x9;&#x9;&#x9;c0.845,0,1.532-0.688,1.532-1.533C6.086,42.898,5.398,42.211,4.554,42.211z M4.554,45.065c-0.73,0-1.323-0.592-1.323-1.323&#xD;&#xA;&#x9;&#x9;&#x9;&#x9;s0.593-1.323,1.323-1.323s1.323,0.592,1.323,1.323S5.284,45.065,4.554,45.065z"/>
      <linearGradient id="SVGID_18_" gradientUnits="userSpaceOnUse" x1="43.5059" y1="45.2754" x2="43.5059" y2="42.2109">
        <stop offset="0" style="stop-color:#FFFFFF;stop-opacity:0.35"/>
        <stop offset="0.2132" style="stop-color:#B6B6B6;stop-opacity:0.3713"/>
        <stop offset="0.425" style="stop-color:#757575;stop-opacity:0.3925"/>
        <stop offset="0.6155" style="stop-color:#434343;stop-opacity:0.4115"/>
        <stop offset="0.7808" style="stop-color:#1E1E1E;stop-opacity:0.4281"/>
        <stop offset="0.9145" style="stop-color:#080808;stop-opacity:0.4415"/>
        <stop offset="1" style="stop-color:#000000;stop-opacity:0.45"/>
      </linearGradient>
      <path fill="url(#SVGID_18_)" d="M43.506,42.211c-0.845,0-1.532,0.687-1.532,1.532c0,0.845,0.688,1.533,1.532,1.533&#xD;&#xA;&#x9;&#x9;&#x9;&#x9;s1.532-0.688,1.532-1.533C45.038,42.898,44.351,42.211,43.506,42.211z M43.506,45.065c-0.731,0-1.323-0.592-1.323-1.323&#xD;&#xA;&#x9;&#x9;&#x9;&#x9;s0.592-1.323,1.323-1.323c0.73,0,1.323,0.592,1.323,1.323S44.236,45.065,43.506,45.065z"/>
    </g>
    <g>
      <path fill="#333333" d="M4.554,3.229c-0.73,0-1.323,0.593-1.323,1.323s0.593,1.323,1.323,1.323s1.323-0.593,1.323-1.323&#xD;&#xA;&#x9;&#x9;&#x9;&#x9;S5.284,3.229,4.554,3.229z M4.554,5.674c-0.619,0-1.122-0.503-1.122-1.122S3.935,3.43,4.554,3.43s1.122,0.503,1.122,1.122&#xD;&#xA;&#x9;&#x9;&#x9;&#x9;S5.173,5.674,4.554,5.674z"/>
      <path fill="#333333" d="M43.506,3.229c-0.731,0-1.323,0.593-1.323,1.323s0.592,1.323,1.323,1.323c0.73,0,1.323-0.593,1.323-1.323&#xD;&#xA;&#x9;&#x9;&#x9;&#x9;S44.236,3.229,43.506,3.229z M43.506,5.674c-0.62,0-1.122-0.503-1.122-1.122s0.502-1.122,1.122-1.122&#xD;&#xA;&#x9;&#x9;&#x9;&#x9;c0.619,0,1.122,0.503,1.122,1.122S44.125,5.674,43.506,5.674z"/>
      <path fill="#333333" d="M4.554,42.42c-0.73,0-1.323,0.592-1.323,1.323s0.593,1.323,1.323,1.323s1.323-0.592,1.323-1.323&#xD;&#xA;&#x9;&#x9;&#x9;&#x9;S5.284,42.42,4.554,42.42z M4.554,44.865c-0.619,0-1.122-0.502-1.122-1.122c0-0.619,0.503-1.122,1.122-1.122&#xD;&#xA;&#x9;&#x9;&#x9;&#x9;s1.122,0.502,1.122,1.122C5.676,44.362,5.173,44.865,4.554,44.865z"/>
      <path fill="#333333" d="M43.506,42.42c-0.731,0-1.323,0.592-1.323,1.323s0.592,1.323,1.323,1.323c0.73,0,1.323-0.592,1.323-1.323&#xD;&#xA;&#x9;&#x9;&#x9;&#x9;S44.236,42.42,43.506,42.42z M43.506,44.865c-0.62,0-1.122-0.502-1.122-1.122c0-0.619,0.502-1.122,1.122-1.122&#xD;&#xA;&#x9;&#x9;&#x9;&#x9;c0.619,0,1.122,0.502,1.122,1.122C44.628,44.362,44.125,44.865,43.506,44.865z"/>
    </g>
    <g>
      <linearGradient id="SVGID_19_" gradientUnits="userSpaceOnUse" x1="4.5537" y1="3.4297" x2="4.5537" y2="5.6738">
        <stop offset="0" style="stop-color:#FFFFFF;stop-opacity:0.45"/>
        <stop offset="1" style="stop-color:#000000;stop-opacity:0.2"/>
      </linearGradient>
      <circle fill="url(#SVGID_19_)" cx="4.554" cy="4.552" r="1.122"/>
      <linearGradient id="SVGID_20_" gradientUnits="userSpaceOnUse" x1="43.5059" y1="3.4297" x2="43.5059" y2="5.6738">
        <stop offset="0" style="stop-color:#FFFFFF;stop-opacity:0.45"/>
        <stop offset="1" style="stop-color:#000000;stop-opacity:0.2"/>
      </linearGradient>
      <circle fill="url(#SVGID_20_)" cx="43.506" cy="4.552" r="1.122"/>
      <linearGradient id="SVGID_21_" gradientUnits="userSpaceOnUse" x1="4.5537" y1="42.6211" x2="4.5537" y2="44.8647">
        <stop offset="0" style="stop-color:#FFFFFF;stop-opacity:0.45"/>
        <stop offset="1" style="stop-color:#000000;stop-opacity:0.2"/>
      </linearGradient>
      <circle fill="url(#SVGID_21_)" cx="4.554" cy="43.743" r="1.122"/>
      <linearGradient id="SVGID_22_" gradientUnits="userSpaceOnUse" x1="43.5059" y1="42.6211" x2="43.5059" y2="44.8647">
        <stop offset="0" style="stop-color:#FFFFFF;stop-opacity:0.45"/>
        <stop offset="1" style="stop-color:#000000;stop-opacity:0.2"/>
      </linearGradient>
      <circle fill="url(#SVGID_22_)" cx="43.506" cy="43.743" r="1.122"/>
    </g>
  </g>
  <g>
    <circle fill="#333333" cx="24.065" cy="70.19" r="17.979"/>
    <linearGradient id="SVGID_23_" gradientUnits="userSpaceOnUse" x1="24.0635" y1="47.1279" x2="24.0635" y2="93.2549">
      <stop offset="0" style="stop-color:#FFFFFF;stop-opacity:0.1"/>
      <stop offset="1" style="stop-color:#000000;stop-opacity:0.2"/>
    </linearGradient>
    <path fill="url(#SVGID_23_)" d="M46.584,47.128H1.544C1.245,47.128,1,47.372,1,47.671v45.04c0,0.299,0.245,0.543,0.544,0.543&#xD;&#xA;&#x9;&#x9;&#x9;h45.04c0.299,0,0.543-0.245,0.543-0.543v-45.04C47.127,47.372,46.883,47.128,46.584,47.128z M24.065,91.233&#xD;&#xA;&#x9;&#x9;&#x9;c-11.623,0-21.044-9.421-21.044-21.043s9.421-21.043,21.044-21.043c11.619,0,21.041,9.421,21.041,21.043&#xD;&#xA;&#x9;&#x9;&#x9;S35.685,91.233,24.065,91.233z"/>
    <linearGradient id="SVGID_24_" gradientUnits="userSpaceOnUse" x1="24.0635" y1="49.1465" x2="24.0635" y2="91.2334">
      <stop offset="0" style="stop-color:#FFFFFF;stop-opacity:0.35"/>
      <stop offset="0.2132" style="stop-color:#B6B6B6;stop-opacity:0.3713"/>
      <stop offset="0.425" style="stop-color:#757575;stop-opacity:0.3925"/>
      <stop offset="0.6155" style="stop-color:#434343;stop-opacity:0.4115"/>
      <stop offset="0.7808" style="stop-color:#1E1E1E;stop-opacity:0.4281"/>
      <stop offset="0.9145" style="stop-color:#080808;stop-opacity:0.4415"/>
      <stop offset="1" style="stop-color:#000000;stop-opacity:0.45"/>
    </linearGradient>
    <path fill="url(#SVGID_24_)" d="M24.065,49.146c-11.623,0-21.044,9.421-21.044,21.043s9.421,21.043,21.044,21.043&#xD;&#xA;&#x9;&#x9;&#x9;c11.619,0,21.041-9.421,21.041-21.043S35.685,49.146,24.065,49.146z M24.065,90.563c-11.253,0-20.373-9.12-20.373-20.373&#xD;&#xA;&#x9;&#x9;&#x9;c0-11.25,9.12-20.373,20.373-20.373c11.25,0,20.369,9.123,20.369,20.373C44.435,81.442,35.315,90.563,24.065,90.563z"/>
    <linearGradient id="SVGID_25_" gradientUnits="userSpaceOnUse" x1="24.0635" y1="49.8174" x2="24.0635" y2="90.5625">
      <stop offset="0" style="stop-color:#FFFFFF;stop-opacity:0.45"/>
      <stop offset="0.09" style="stop-color:#F8F8F8;stop-opacity:0.4275"/>
      <stop offset="0.2167" style="stop-color:#E6E6E6;stop-opacity:0.3958"/>
      <stop offset="0.3649" style="stop-color:#C8C8C8;stop-opacity:0.3588"/>
      <stop offset="0.5298" style="stop-color:#9E9E9E;stop-opacity:0.3176"/>
      <stop offset="0.7082" style="stop-color:#686868;stop-opacity:0.273"/>
      <stop offset="0.895" style="stop-color:#282828;stop-opacity:0.2263"/>
      <stop offset="1" style="stop-color:#000000;stop-opacity:0.2"/>
    </linearGradient>
    <path fill="url(#SVGID_25_)" d="M24.065,49.817c-11.253,0-20.373,9.123-20.373,20.373c0,11.252,9.12,20.373,20.373,20.373&#xD;&#xA;&#x9;&#x9;&#x9;c11.25,0,20.369-9.12,20.369-20.373C44.435,58.94,35.315,49.817,24.065,49.817z M24.065,89.87c-10.87,0-19.681-8.811-19.681-19.68&#xD;&#xA;&#x9;&#x9;&#x9;c0-10.867,8.811-19.677,19.681-19.677c10.866,0,19.677,8.811,19.677,19.677C43.742,81.06,34.932,89.87,24.065,89.87z"/>
    <linearGradient id="SVGID_26_" gradientUnits="userSpaceOnUse" x1="24.0635" y1="89.8701" x2="24.0635" y2="50.5127">
      <stop offset="0" style="stop-color:#FFFFFF;stop-opacity:0.35"/>
      <stop offset="0.2132" style="stop-color:#B6B6B6;stop-opacity:0.3713"/>
      <stop offset="0.425" style="stop-color:#757575;stop-opacity:0.3925"/>
      <stop offset="0.6155" style="stop-color:#434343;stop-opacity:0.4115"/>
      <stop offset="0.7808" style="stop-color:#1E1E1E;stop-opacity:0.4281"/>
      <stop offset="0.9145" style="stop-color:#080808;stop-opacity:0.4415"/>
      <stop offset="1" style="stop-color:#000000;stop-opacity:0.45"/>
    </linearGradient>
    <path fill="url(#SVGID_26_)" d="M24.065,50.513c-10.87,0-19.681,8.811-19.681,19.677c0,10.87,8.811,19.68,19.681,19.68&#xD;&#xA;&#x9;&#x9;&#x9;c10.866,0,19.677-8.811,19.677-19.68C43.742,59.323,34.932,50.513,24.065,50.513z M24.065,88.509&#xD;&#xA;&#x9;&#x9;&#x9;c-10.117,0-18.319-8.202-18.319-18.319s8.202-18.319,18.319-18.319s18.318,8.202,18.318,18.319S34.183,88.509,24.065,88.509z"/>
    <path fill="#333333" d="M24.065,51.871c-10.117,0-18.319,8.202-18.319,18.319s8.202,18.319,18.319,18.319&#xD;&#xA;&#x9;&#x9;&#x9;s18.318-8.202,18.318-18.319S34.183,51.871,24.065,51.871z M24.065,88.169c-9.93,0-17.979-8.05-17.979-17.979&#xD;&#xA;&#x9;&#x9;&#x9;s8.05-17.979,17.979-17.979c9.929,0,17.979,8.05,17.979,17.979S33.994,88.169,24.065,88.169z"/>
    <linearGradient id="SVGID_27_" gradientUnits="userSpaceOnUse" x1="24.0654" y1="52.2109" x2="24.0654" y2="88.1689">
      <stop offset="0.4451" style="stop-color:#FFFFFF;stop-opacity:0"/>
      <stop offset="1" style="stop-color:#FFFFFF;stop-opacity:0.15"/>
    </linearGradient>
    <circle fill="url(#SVGID_27_)" cx="24.065" cy="70.19" r="17.979"/>
    <radialGradient id="SVGID_28_" cx="24.0654" cy="70.1899" r="17.9788" gradientUnits="userSpaceOnUse">
      <stop offset="0" style="stop-color:#FFFFFF;stop-opacity:0"/>
      <stop offset="0.7911" style="stop-color:#FFFFFF;stop-opacity:0.0865"/>
      <stop offset="0.9146" style="stop-color:#FFFFFF;stop-opacity:0.1"/>
      <stop offset="0.9817" style="stop-color:#FFFFFF;stop-opacity:0.05"/>
    </radialGradient>
    <circle fill="url(#SVGID_28_)" cx="24.065" cy="70.19" r="17.979"/>
    <path fill="#333333" d="M1.544,92.668v0.043h44.972L1.544,92.668z M1.544,92.668v0.043h44.972L1.544,92.668z"/>
    <linearGradient id="SVGID_29_" gradientUnits="userSpaceOnUse" x1="1.0928" y1="47.4482" x2="47.0078" y2="47.4482">
      <stop offset="0" style="stop-color:#FFFFFF;stop-opacity:0.15"/>
      <stop offset="0.5244" style="stop-color:#FFFFFF;stop-opacity:0.3"/>
      <stop offset="1" style="stop-color:#FFFFFF;stop-opacity:0.15"/>
    </linearGradient>
    <path fill="url(#SVGID_29_)" d="M46.584,47.769v-0.098H1.663l-0.57-0.302c0.098-0.144,0.264-0.242,0.451-0.242h45.04&#xD;&#xA;&#x9;&#x9;&#x9;c0.171,0,0.323,0.079,0.424,0.204L46.584,47.769z"/>
    <linearGradient id="SVGID_30_" gradientUnits="userSpaceOnUse" x1="1.1221" y1="92.9614" x2="46.877" y2="92.9614">
      <stop offset="0" style="stop-color:#000000;stop-opacity:0.35"/>
      <stop offset="1" style="stop-color:#000000;stop-opacity:0.35"/>
    </linearGradient>
    <path fill="url(#SVGID_30_)" d="M46.877,93.17c-0.084,0.054-0.185,0.084-0.293,0.084H1.544c-0.169,0-0.321-0.079-0.422-0.201&#xD;&#xA;&#x9;&#x9;&#x9;l0.422-0.386v0.043h44.972L46.877,93.17z"/>
    <polygon fill="#333333" points="46.516,92.711 1.544,92.711 1.544,92.668 &#x9;&#x9;"/>
    <linearGradient id="SVGID_31_" gradientUnits="userSpaceOnUse" x1="1.3311" y1="47.3696" x2="1.3311" y2="93.0537">
      <stop offset="0" style="stop-color:#000000;stop-opacity:0.25"/>
      <stop offset="1" style="stop-color:#000000;stop-opacity:0.15"/>
    </linearGradient>
    <path fill="url(#SVGID_31_)" d="M1.663,47.671H1.544v44.997l-0.422,0.386C1.046,92.961,1,92.842,1,92.711v-45.04&#xD;&#xA;&#x9;&#x9;&#x9;c0-0.112,0.032-0.214,0.093-0.302L1.663,47.671z"/>
    <linearGradient id="SVGID_32_" gradientUnits="userSpaceOnUse" x1="46.8213" y1="47.332" x2="46.8213" y2="93.1704">
      <stop offset="0" style="stop-color:#000000;stop-opacity:0.25"/>
      <stop offset="1" style="stop-color:#000000;stop-opacity:0.15"/>
    </linearGradient>
    <path fill="url(#SVGID_32_)" d="M47.127,47.671v45.04c0,0.19-0.101,0.361-0.25,0.459l-0.361-0.459h0.068V47.769l0.424-0.437&#xD;&#xA;&#x9;&#x9;&#x9;C47.081,47.424,47.127,47.543,47.127,47.671z"/>
    <linearGradient id="SVGID_33_" gradientUnits="userSpaceOnUse" x1="24.0654" y1="52.2109" x2="24.0654" y2="88.1689">
      <stop offset="0" style="stop-color:#000000;stop-opacity:0.2"/>
      <stop offset="0.0862" style="stop-color:#080808;stop-opacity:0.1871"/>
      <stop offset="0.2177" style="stop-color:#1D1D1D;stop-opacity:0.1673"/>
      <stop offset="0.3779" style="stop-color:#3F3F3F;stop-opacity:0.1433"/>
      <stop offset="0.5608" style="stop-color:#707070;stop-opacity:0.1159"/>
      <stop offset="0.7629" style="stop-color:#ADADAD;stop-opacity:0.0856"/>
      <stop offset="0.9781" style="stop-color:#F7F7F7;stop-opacity:0.0533"/>
      <stop offset="1" style="stop-color:#FFFFFF;stop-opacity:0.05"/>
    </linearGradient>
    <path fill="url(#SVGID_33_)" d="M24.065,52.211c-9.93,0-17.979,8.05-17.979,17.979s8.05,17.979,17.979,17.979&#xD;&#xA;&#x9;&#x9;&#x9;c9.929,0,17.979-8.05,17.979-17.979S33.994,52.211,24.065,52.211z M24.065,85.729c-8.582,0-15.54-6.958-15.54-15.54&#xD;&#xA;&#x9;&#x9;&#x9;s6.958-15.54,15.54-15.54s15.539,6.958,15.539,15.54S32.647,85.729,24.065,85.729z"/>
    <linearGradient id="SVGID_34_" gradientUnits="userSpaceOnUse" x1="24.0635" y1="51.252" x2="24.0635" y2="89.1309">
      <stop offset="0" style="stop-color:#FFFFFF;stop-opacity:0.05"/>
      <stop offset="0.8649" style="stop-color:#FFFFFF;stop-opacity:0.0327"/>
      <stop offset="1" style="stop-color:#FFFFFF;stop-opacity:0.03"/>
    </linearGradient>
    <path fill="url(#SVGID_34_)" d="M24.065,51.252c-10.463,0-18.941,8.479-18.941,18.938s8.479,18.941,18.941,18.941&#xD;&#xA;&#x9;&#x9;&#x9;c10.459,0,18.938-8.481,18.938-18.941S34.524,51.252,24.065,51.252z M24.065,88.509c-10.117,0-18.319-8.202-18.319-18.319&#xD;&#xA;&#x9;&#x9;&#x9;s8.202-18.319,18.319-18.319s18.318,8.202,18.318,18.319S34.183,88.509,24.065,88.509z"/>
    <linearGradient id="SVGID_35_" gradientUnits="userSpaceOnUse" x1="23.9453" y1="71.6865" x2="23.9453" y2="52.6865">
      <stop offset="0" style="stop-color:#FFFFFF;stop-opacity:0.1"/>
      <stop offset="0.8649" style="stop-color:#FFFFFF;stop-opacity:0.1432"/>
      <stop offset="1" style="stop-color:#FFFFFF;stop-opacity:0.15"/>
    </linearGradient>
    <path fill="url(#SVGID_35_)" d="M6.562,70.19c0-9.666,7.838-17.503,17.504-17.503c8.68,0,15.885,6.319,17.264,14.61&#xD;&#xA;&#x9;&#x9;&#x9;c-13.322,0.166-23.714,0.913-34.702,4.39C6.583,71.192,6.562,70.695,6.562,70.19z"/>
    <g>
      <linearGradient id="SVGID_36_" gradientUnits="userSpaceOnUse" x1="4.5537" y1="52.2109" x2="4.5537" y2="49.1465">
        <stop offset="0" style="stop-color:#FFFFFF;stop-opacity:0.35"/>
        <stop offset="0.2132" style="stop-color:#B6B6B6;stop-opacity:0.3713"/>
        <stop offset="0.425" style="stop-color:#757575;stop-opacity:0.3925"/>
        <stop offset="0.6155" style="stop-color:#434343;stop-opacity:0.4115"/>
        <stop offset="0.7808" style="stop-color:#1E1E1E;stop-opacity:0.4281"/>
        <stop offset="0.9145" style="stop-color:#080808;stop-opacity:0.4415"/>
        <stop offset="1" style="stop-color:#000000;stop-opacity:0.45"/>
      </linearGradient>
      <path fill="url(#SVGID_36_)" d="M4.554,49.146c-0.846,0-1.532,0.688-1.532,1.532s0.687,1.532,1.532,1.532&#xD;&#xA;&#x9;&#x9;&#x9;&#x9;c0.845,0,1.532-0.688,1.532-1.532S5.398,49.146,4.554,49.146z M4.554,52.002c-0.73,0-1.323-0.593-1.323-1.323&#xD;&#xA;&#x9;&#x9;&#x9;&#x9;s0.593-1.323,1.323-1.323s1.323,0.593,1.323,1.323S5.284,52.002,4.554,52.002z"/>
      <linearGradient id="SVGID_37_" gradientUnits="userSpaceOnUse" x1="43.5059" y1="52.2109" x2="43.5059" y2="49.1465">
        <stop offset="0" style="stop-color:#FFFFFF;stop-opacity:0.35"/>
        <stop offset="0.2132" style="stop-color:#B6B6B6;stop-opacity:0.3713"/>
        <stop offset="0.425" style="stop-color:#757575;stop-opacity:0.3925"/>
        <stop offset="0.6155" style="stop-color:#434343;stop-opacity:0.4115"/>
        <stop offset="0.7808" style="stop-color:#1E1E1E;stop-opacity:0.4281"/>
        <stop offset="0.9145" style="stop-color:#080808;stop-opacity:0.4415"/>
        <stop offset="1" style="stop-color:#000000;stop-opacity:0.45"/>
      </linearGradient>
      <path fill="url(#SVGID_37_)" d="M43.506,49.146c-0.845,0-1.532,0.688-1.532,1.532s0.688,1.532,1.532,1.532&#xD;&#xA;&#x9;&#x9;&#x9;&#x9;s1.532-0.688,1.532-1.532S44.351,49.146,43.506,49.146z M43.506,52.002c-0.731,0-1.323-0.593-1.323-1.323&#xD;&#xA;&#x9;&#x9;&#x9;&#x9;s0.592-1.323,1.323-1.323c0.73,0,1.323,0.593,1.323,1.323S44.236,52.002,43.506,52.002z"/>
      <linearGradient id="SVGID_38_" gradientUnits="userSpaceOnUse" x1="4.5537" y1="91.4019" x2="4.5537" y2="88.3374">
        <stop offset="0" style="stop-color:#FFFFFF;stop-opacity:0.35"/>
        <stop offset="0.2132" style="stop-color:#B6B6B6;stop-opacity:0.3713"/>
        <stop offset="0.425" style="stop-color:#757575;stop-opacity:0.3925"/>
        <stop offset="0.6155" style="stop-color:#434343;stop-opacity:0.4115"/>
        <stop offset="0.7808" style="stop-color:#1E1E1E;stop-opacity:0.4281"/>
        <stop offset="0.9145" style="stop-color:#080808;stop-opacity:0.4415"/>
        <stop offset="1" style="stop-color:#000000;stop-opacity:0.45"/>
      </linearGradient>
      <path fill="url(#SVGID_38_)" d="M4.554,88.337c-0.846,0-1.532,0.688-1.532,1.532c0,0.845,0.687,1.532,1.532,1.532&#xD;&#xA;&#x9;&#x9;&#x9;&#x9;c0.845,0,1.532-0.687,1.532-1.532C6.086,89.025,5.398,88.337,4.554,88.337z M4.554,91.192c-0.73,0-1.323-0.592-1.323-1.323&#xD;&#xA;&#x9;&#x9;&#x9;&#x9;s0.593-1.323,1.323-1.323s1.323,0.592,1.323,1.323S5.284,91.192,4.554,91.192z"/>
      <linearGradient id="SVGID_39_" gradientUnits="userSpaceOnUse" x1="43.5059" y1="91.4019" x2="43.5059" y2="88.3374">
        <stop offset="0" style="stop-color:#FFFFFF;stop-opacity:0.35"/>
        <stop offset="0.2132" style="stop-color:#B6B6B6;stop-opacity:0.3713"/>
        <stop offset="0.425" style="stop-color:#757575;stop-opacity:0.3925"/>
        <stop offset="0.6155" style="stop-color:#434343;stop-opacity:0.4115"/>
        <stop offset="0.7808" style="stop-color:#1E1E1E;stop-opacity:0.4281"/>
        <stop offset="0.9145" style="stop-color:#080808;stop-opacity:0.4415"/>
        <stop offset="1" style="stop-color:#000000;stop-opacity:0.45"/>
      </linearGradient>
      <path fill="url(#SVGID_39_)" d="M43.506,88.337c-0.845,0-1.532,0.688-1.532,1.532c0,0.845,0.688,1.532,1.532,1.532&#xD;&#xA;&#x9;&#x9;&#x9;&#x9;s1.532-0.687,1.532-1.532C45.038,89.025,44.351,88.337,43.506,88.337z M43.506,91.192c-0.731,0-1.323-0.592-1.323-1.323&#xD;&#xA;&#x9;&#x9;&#x9;&#x9;s0.592-1.323,1.323-1.323c0.73,0,1.323,0.592,1.323,1.323S44.236,91.192,43.506,91.192z"/>
    </g>
    <g>
      <path fill="#333333" d="M4.554,49.355c-0.73,0-1.323,0.593-1.323,1.323s0.593,1.323,1.323,1.323s1.323-0.593,1.323-1.323&#xD;&#xA;&#x9;&#x9;&#x9;&#x9;S5.284,49.355,4.554,49.355z M4.554,51.801c-0.619,0-1.122-0.503-1.122-1.122s0.503-1.122,1.122-1.122s1.122,0.503,1.122,1.122&#xD;&#xA;&#x9;&#x9;&#x9;&#x9;S5.173,51.801,4.554,51.801z"/>
      <path fill="#333333" d="M43.506,49.355c-0.731,0-1.323,0.593-1.323,1.323s0.592,1.323,1.323,1.323&#xD;&#xA;&#x9;&#x9;&#x9;&#x9;c0.73,0,1.323-0.593,1.323-1.323S44.236,49.355,43.506,49.355z M43.506,51.801c-0.62,0-1.122-0.503-1.122-1.122&#xD;&#xA;&#x9;&#x9;&#x9;&#x9;s0.502-1.122,1.122-1.122c0.619,0,1.122,0.503,1.122,1.122S44.125,51.801,43.506,51.801z"/>
      <path fill="#333333" d="M4.554,88.546c-0.73,0-1.323,0.592-1.323,1.323s0.593,1.323,1.323,1.323s1.323-0.592,1.323-1.323&#xD;&#xA;&#x9;&#x9;&#x9;&#x9;S5.284,88.546,4.554,88.546z M4.554,90.991c-0.619,0-1.122-0.502-1.122-1.122s0.503-1.122,1.122-1.122s1.122,0.502,1.122,1.122&#xD;&#xA;&#x9;&#x9;&#x9;&#x9;S5.173,90.991,4.554,90.991z"/>
      <path fill="#333333" d="M43.506,88.546c-0.731,0-1.323,0.592-1.323,1.323s0.592,1.323,1.323,1.323&#xD;&#xA;&#x9;&#x9;&#x9;&#x9;c0.73,0,1.323-0.592,1.323-1.323S44.236,88.546,43.506,88.546z M43.506,90.991c-0.62,0-1.122-0.502-1.122-1.122&#xD;&#xA;&#x9;&#x9;&#x9;&#x9;s0.502-1.122,1.122-1.122c0.619,0,1.122,0.502,1.122,1.122S44.125,90.991,43.506,90.991z"/>
    </g>
    <g>
      <linearGradient id="SVGID_40_" gradientUnits="userSpaceOnUse" x1="4.5537" y1="49.5566" x2="4.5537" y2="51.8008">
        <stop offset="0" style="stop-color:#FFFFFF;stop-opacity:0.45"/>
        <stop offset="1" style="stop-color:#000000;stop-opacity:0.2"/>
      </linearGradient>
      <circle fill="url(#SVGID_40_)" cx="4.554" cy="50.679" r="1.122"/>
      <linearGradient id="SVGID_41_" gradientUnits="userSpaceOnUse" x1="43.5059" y1="49.5566" x2="43.5059" y2="51.8008">
        <stop offset="0" style="stop-color:#FFFFFF;stop-opacity:0.45"/>
        <stop offset="1" style="stop-color:#000000;stop-opacity:0.2"/>
      </linearGradient>
      <circle fill="url(#SVGID_41_)" cx="43.506" cy="50.679" r="1.122"/>
      <linearGradient id="SVGID_42_" gradientUnits="userSpaceOnUse" x1="4.5537" y1="88.7476" x2="4.5537" y2="90.9912">
        <stop offset="0" style="stop-color:#FFFFFF;stop-opacity:0.45"/>
        <stop offset="1" style="stop-color:#000000;stop-opacity:0.2"/>
      </linearGradient>
      <circle fill="url(#SVGID_42_)" cx="4.554" cy="89.87" r="1.122"/>
      <linearGradient id="SVGID_43_" gradientUnits="userSpaceOnUse" x1="43.5059" y1="88.7476" x2="43.5059" y2="90.9912">
        <stop offset="0" style="stop-color:#FFFFFF;stop-opacity:0.45"/>
        <stop offset="1" style="stop-color:#000000;stop-opacity:0.2"/>
      </linearGradient>
      <circle fill="url(#SVGID_43_)" cx="43.506" cy="89.87" r="1.122"/>
    </g>
  </g>
</svg>