<svg version="1.2" baseProfile="tiny" viewBox="0 0 48.128 94.254" xmlns:xlink="http://www.w3.org/1999/xlink" xmlns="http://www.w3.org/2000/svg">
<path style="fill:#ffffff;" d="M47.1279,46.5841L47.1279,1.5429C47.1279,1.2442,46.8829,1.0,46.5841,1.0L1.5439,1.0L1.5439,1.0C1.2451,1.0,1.0001,1.2442,1.0001,1.5429L1.0001,46.5841C1.0001,46.8829,1.2451,47.127,1.5439,47.127C1.2451,47.127,1.0001,47.3711,1.0001,47.6699L1.0001,92.7111C1.0001,93.0098,1.2451,93.254,1.5439,93.254L46.5841,93.254C46.8829,93.254,47.1279,93.0098,47.1279,92.7111L47.1279,47.6699C47.1279,47.3711,46.8829,47.127,46.5841,47.127C46.8829,47.127,47.1279,46.8829,47.1279,46.5841Z"/>
</svg>